<svg width="16" height="16" viewBox="0 0 16 16" fill="none" xmlns="http://www.w3.org/2000/svg">
<g clip-path="url(#clip0_0_4592)">
<path fill-rule="evenodd" clip-rule="evenodd" d="M8 0.199951C3.6 0.199951 0 3.79995 0 8.19995C0 11.75 2.3 14.75 5.45 15.8C5.85 15.85 6 15.65 6 15.4C6 15.2 6 14.7 6 14.05C3.75 14.55 3.3 13 3.3 13C2.95 12.1 2.4 11.85 2.4 11.85C1.65 11.35 2.45 11.35 2.45 11.35C3.25 11.4 3.7 12.15 3.7 12.15C4.4 13.35 5.55 13 6.05 12.8C6.1 12.3 6.35 11.95 6.55 11.75C4.75 11.55 2.9 10.85 2.9 7.79995C2.9 6.94995 3.2 6.19995 3.7 5.64995C3.6 5.44995 3.35 4.64995 3.8 3.54995C3.8 3.54995 4.45 3.34995 6 4.34995C6.65 4.14995 7.3 4.09995 8 4.09995C8.7 4.09995 9.35 4.19995 10 4.34995C11.55 3.29995 12.2 3.49995 12.2 3.49995C12.65 4.59995 12.35 5.39995 12.3 5.59995C12.8 6.14995 13.1 6.84995 13.1 7.74995C13.1 10.8 11.25 11.5 9.45 11.7C9.75 11.95 10 12.45 10 13.2C10 14.25 10 15.15 10 15.4C10 15.6 10.15 15.85 10.55 15.8C13.7 14.75 16 11.75 16 8.19995C16 3.79995 12.4 0.199951 8 0.199951Z" fill="white"/>
</g>
<defs>
<clipPath id="clip0_0_4592">
<rect width="16" height="16" fill="white"/>
</clipPath>
</defs>
</svg>
