<svg width="16" height="16" viewBox="0 0 16 16" fill="none" xmlns="http://www.w3.org/2000/svg">
<g clip-path="url(#clip0_0_4589)">
<path d="M16 8.00045C15.9998 6.47167 15.5615 4.97496 14.737 3.68752C13.9126 2.40008 12.7365 1.37583 11.3481 0.736017C9.95962 0.0962038 8.4169 -0.132374 6.90257 0.0773438C5.38823 0.287062 3.9657 0.926292 2.80337 1.91936C1.64104 2.91243 0.787596 4.21775 0.344069 5.68078C-0.099457 7.14382 -0.114491 8.7033 0.300748 10.1746C0.715987 11.6459 1.54411 12.9675 2.68708 13.9828C3.83004 14.998 5.23999 15.6646 6.75 15.9035V10.313H4.719V8.00045H6.75V6.23795C6.75 4.23295 7.9445 3.12545 9.7715 3.12545C10.3715 3.13378 10.9701 3.18591 11.5625 3.28145V5.25045H10.5535C10.3816 5.22762 10.2067 5.24377 10.0418 5.2977C9.87698 5.35164 9.72638 5.44198 9.60119 5.56203C9.476 5.68209 9.37943 5.82877 9.31864 5.99122C9.25784 6.15366 9.23439 6.32771 9.25 6.50045V8.00045H11.469L11.114 10.313H9.25V15.9035C11.1319 15.6058 12.8458 14.6462 14.0832 13.1974C15.3206 11.7486 16.0003 9.90575 16 8.00045Z" fill="white"/>
</g>
<defs>
<clipPath id="clip0_0_4589">
<rect width="16" height="16" fill="white"/>
</clipPath>
</defs>
</svg>
