<svg width="16" height="16" viewBox="0 0 16 16" fill="none" xmlns="http://www.w3.org/2000/svg">
<g clip-path="url(#clip0_0_4590)">
<path d="M16.0001 3.05C15.4001 3.3 14.8001 3.5 14.1001 3.55C14.8001 3.15 15.3001 2.5 15.5501 1.75C14.9001 2.15 14.2001 2.4 13.4501 2.55C12.8501 1.9 12.0001 1.5 11.1001 1.5C9.30007 1.5 7.80007 2.95 7.80007 4.8C7.80007 5.05 7.85007 5.3 7.90007 5.55C5.15007 5.4 2.75007 4.1 1.10007 2.1C0.800073 2.6 0.650073 3.15 0.650073 3.75C0.650073 4.9 1.25007 5.9 2.10007 6.5C1.55007 6.5 1.05007 6.35 0.600073 6.1V6.15C0.600073 7.75 1.75007 9.05 3.25007 9.35C2.95007 9.4 2.70007 9.45 2.40007 9.45C2.20007 9.45 2.00007 9.45 1.80007 9.4C2.20007 10.7 3.45007 11.65 4.85007 11.7C3.75007 12.6 2.30007 13.1 0.750073 13.1C0.500073 13.1 0.200073 13.1 -0.0499268 13.05C1.45007 13.95 3.20007 14.5 5.05007 14.5C11.1001 14.5 14.4001 9.5 14.4001 5.15C14.4001 5 14.4001 4.85 14.4001 4.75C15.0001 4.25 15.5501 3.7 16.0001 3.05Z" fill="white"/>
</g>
<defs>
<clipPath id="clip0_0_4590">
<rect width="16" height="16" fill="white"/>
</clipPath>
</defs>
</svg>
